<svg id="visual" viewBox="0 0 900 300" width="900" height="300" xmlns="http://www.w3.org/2000/svg" xmlns:xlink="http://www.w3.org/1999/xlink" version="1.1"><rect x="0" y="0" width="900" height="300" fill="#b36b43"></rect><path d="M0 240L21.5 239.3C43 238.7 86 237.3 128.8 224.8C171.7 212.3 214.3 188.7 257.2 192.2C300 195.7 343 226.3 385.8 228.3C428.7 230.3 471.3 203.7 514.2 193.7C557 183.7 600 190.3 642.8 204.2C685.7 218 728.3 239 771.2 238.7C814 238.3 857 216.7 878.5 205.8L900 195L900 0L878.5 0C857 0 814 0 771.2 0C728.3 0 685.7 0 642.8 0C600 0 557 0 514.2 0C471.3 0 428.7 0 385.8 0C343 0 300 0 257.2 0C214.3 0 171.7 0 128.8 0C86 0 43 0 21.5 0L0 0Z" fill="#b3653b"></path><path d="M0 203L21.5 205.7C43 208.3 86 213.7 128.8 214.7C171.7 215.7 214.3 212.3 257.2 203.5C300 194.7 343 180.3 385.8 173.2C428.7 166 471.3 166 514.2 161.8C557 157.7 600 149.3 642.8 155.8C685.7 162.3 728.3 183.7 771.2 189C814 194.3 857 183.7 878.5 178.3L900 173L900 0L878.5 0C857 0 814 0 771.2 0C728.3 0 685.7 0 642.8 0C600 0 557 0 514.2 0C471.3 0 428.7 0 385.8 0C343 0 300 0 257.2 0C214.3 0 171.7 0 128.8 0C86 0 43 0 21.5 0L0 0Z" fill="#bb6e44"></path><path d="M0 148L21.5 139.8C43 131.7 86 115.3 128.8 121.2C171.7 127 214.3 155 257.2 157.3C300 159.7 343 136.3 385.8 131.3C428.7 126.3 471.3 139.7 514.2 143.7C557 147.7 600 142.3 642.8 132.8C685.7 123.3 728.3 109.7 771.2 107.7C814 105.7 857 115.3 878.5 120.2L900 125L900 0L878.5 0C857 0 814 0 771.2 0C728.3 0 685.7 0 642.8 0C600 0 557 0 514.2 0C471.3 0 428.7 0 385.8 0C343 0 300 0 257.2 0C214.3 0 171.7 0 128.8 0C86 0 43 0 21.5 0L0 0Z" fill="#c4774d"></path><path d="M0 90L21.5 89.3C43 88.7 86 87.3 128.8 86.5C171.7 85.7 214.3 85.3 257.2 90.3C300 95.3 343 105.7 385.8 106C428.7 106.3 471.3 96.7 514.2 92.5C557 88.3 600 89.7 642.8 98.7C685.7 107.7 728.3 124.3 771.2 120.8C814 117.3 857 93.7 878.5 81.8L900 70L900 0L878.5 0C857 0 814 0 771.2 0C728.3 0 685.7 0 642.8 0C600 0 557 0 514.2 0C471.3 0 428.7 0 385.8 0C343 0 300 0 257.2 0C214.3 0 171.7 0 128.8 0C86 0 43 0 21.5 0L0 0Z" fill="#cc7f57"></path><path d="M0 95L21.5 94C43 93 86 91 128.8 92.8C171.7 94.7 214.3 100.3 257.2 95.7C300 91 343 76 385.8 74.3C428.7 72.7 471.3 84.3 514.2 84.8C557 85.3 600 74.7 642.8 69.2C685.7 63.7 728.3 63.3 771.2 59.7C814 56 857 49 878.5 45.5L900 42L900 0L878.5 0C857 0 814 0 771.2 0C728.3 0 685.7 0 642.8 0C600 0 557 0 514.2 0C471.3 0 428.7 0 385.8 0C343 0 300 0 257.2 0C214.3 0 171.7 0 128.8 0C86 0 43 0 21.5 0L0 0Z" fill="#d48860"></path><path d="M0 34L21.5 32C43 30 86 26 128.8 30.2C171.7 34.3 214.3 46.7 257.2 54C300 61.3 343 63.7 385.8 61.7C428.7 59.7 471.3 53.3 514.2 52C557 50.7 600 54.3 642.8 53.8C685.7 53.3 728.3 48.7 771.2 47C814 45.3 857 46.7 878.5 47.3L900 48L900 0L878.5 0C857 0 814 0 771.2 0C728.3 0 685.7 0 642.8 0C600 0 557 0 514.2 0C471.3 0 428.7 0 385.8 0C343 0 300 0 257.2 0C214.3 0 171.7 0 128.8 0C86 0 43 0 21.5 0L0 0Z" fill="#dc9169"></path></svg>