<svg id="visual" viewBox="0 0 900 300" width="900" height="300" xmlns="http://www.w3.org/2000/svg" xmlns:xlink="http://www.w3.org/1999/xlink" version="1.1"><rect x="0" y="0" width="900" height="300" fill="#3dc200"></rect><path d="M0 246L25 239.5C50 233 100 220 150 209.3C200 198.7 250 190.3 300 189C350 187.7 400 193.3 450 204.8C500 216.3 550 233.7 600 236.3C650 239 700 227 750 214.2C800 201.3 850 187.7 875 180.8L900 174L900 0L875 0C850 0 800 0 750 0C700 0 650 0 600 0C550 0 500 0 450 0C400 0 350 0 300 0C250 0 200 0 150 0C100 0 50 0 25 0L0 0Z" fill="#45db00"></path><path d="M0 210L25 201.2C50 192.3 100 174.7 150 169.7C200 164.7 250 172.3 300 168.3C350 164.3 400 148.7 450 148.8C500 149 550 165 600 169.2C650 173.3 700 165.7 750 167.5C800 169.3 850 180.7 875 186.3L900 192L900 0L875 0C850 0 800 0 750 0C700 0 650 0 600 0C550 0 500 0 450 0C400 0 350 0 300 0C250 0 200 0 150 0C100 0 50 0 25 0L0 0Z" fill="#72e500"></path><path d="M0 119L25 117.2C50 115.3 100 111.7 150 111.5C200 111.3 250 114.7 300 116.7C350 118.7 400 119.3 450 124.8C500 130.3 550 140.7 600 142C650 143.3 700 135.7 750 137.2C800 138.7 850 149.3 875 154.7L900 160L900 0L875 0C850 0 800 0 750 0C700 0 650 0 600 0C550 0 500 0 450 0C400 0 350 0 300 0C250 0 200 0 150 0C100 0 50 0 25 0L0 0Z" fill="#95ee00"></path><path d="M0 79L25 77.5C50 76 100 73 150 71.3C200 69.7 250 69.3 300 70.8C350 72.3 400 75.7 450 83.5C500 91.3 550 103.7 600 109.5C650 115.3 700 114.7 750 108.8C800 103 850 92 875 86.5L900 81L900 0L875 0C850 0 800 0 750 0C700 0 650 0 600 0C550 0 500 0 450 0C400 0 350 0 300 0C250 0 200 0 150 0C100 0 50 0 25 0L0 0Z" fill="#b5f700"></path><path d="M0 68L25 65.7C50 63.3 100 58.7 150 54C200 49.3 250 44.7 300 41.2C350 37.7 400 35.3 450 35.5C500 35.7 550 38.3 600 43.2C650 48 700 55 750 55.5C800 56 850 50 875 47L900 44L900 0L875 0C850 0 800 0 750 0C700 0 650 0 600 0C550 0 500 0 450 0C400 0 350 0 300 0C250 0 200 0 150 0C100 0 50 0 25 0L0 0Z" fill="#d4ff00"></path></svg>